<?xml version="1.0" encoding="UTF-8"?>
<svg id="Layer_1" xmlns="http://www.w3.org/2000/svg" version="1.1" viewBox="0 0 732.4 728.3">
  <!-- Generator: Adobe Illustrator 29.8.7, SVG Export Plug-In . SVG Version: 2.1.1 Build 1)  -->
  <defs>
    <style>
      .st0 {
        fill: #fff;
      }
    </style>
  </defs>
  <polygon class="st0" points="38.8 260.2 38.8 402.5 281.6 402.5 281.6 231.7 38.8 260.2"/>
  <polygon class="st0" points="38.8 40.6 38.8 207.5 185.3 207.5 220.7 40.6 38.8 40.6"/>
  <polygon class="st0" points="250.7 40.6 250.7 184.8 532.5 171.6 547.5 40.6 250.7 40.6"/>
  <polygon class="st0" points="562.5 170.9 577.1 40.6 694.4 40.6 694.4 135.3 562.5 170.9"/>
  <polygon class="st0" points="309.9 207.5 309.6 307.5 694.4 340.4 694.4 192.5 309.9 207.5"/>
  <polygon class="st0" points="309.6 334.1 309.6 426.4 502.6 397.8 508.5 351.7 309.6 334.1"/>
  <rect class="st0" x="38.8" y="426.4" width="115.7" height="109.6"/>
  <polygon class="st0" points="38.8 561.3 38.8 687.2 250.7 687.2 222.1 561.3 38.8 561.3"/>
  <polygon class="st0" points="281.6 449.4 277.7 687.2 478 687.2 501.6 449.4 281.6 449.4"/>
  <polygon class="st0" points="538.3 354.8 525.3 501.8 694.4 524.3 694.4 366.6 538.3 354.8"/>
  <polygon class="st0" points="519.6 553.3 507.7 687.2 694.4 687.2 694.4 548.6 519.6 553.3"/>
  <polyline class="st0" points="184.6 536 250.7 536 250.7 426.4 213.2 426.4"/>
</svg>