<?xml version="1.0" encoding="UTF-8"?>
<svg id="Layer_1" xmlns="http://www.w3.org/2000/svg" version="1.1" viewBox="0 0 732.4 728.3">
  <!-- Generator: Adobe Illustrator 29.8.7, SVG Export Plug-In . SVG Version: 2.1.1 Build 1)  -->
  <polygon points="38.8 230.2 38.8 402.5 287.6 402.5 287.6 226.7 38.8 230.2"/>
  <polygon points="38.8 40.6 38.8 207.5 225.3 207.5 224.7 40.6 38.8 40.6"/>
  <polygon points="250.7 40.6 250.7 184.8 532.5 171.6 537.5 40.6 250.7 40.6"/>
  <polygon points="558.5 170.9 562.1 40.6 694.4 40.6 694.4 165.3 558.5 170.9"/>
  <polygon points="313.9 207.5 309.6 307.5 694.4 340.4 694.4 192.5 313.9 207.5"/>
  <polygon points="313.6 334.1 309.6 426.4 432.6 427.8 438.5 346.7 313.6 334.1"/>
  <rect x="38.8" y="422.4" width="115.7" height="113.6"/>
  <polygon points="38.8 556.3 38.8 687.2 253.7 687.2 255.1 556.3 38.8 556.3"/>
  <polygon points="281.6 449.4 277.7 687.2 498 687.2 501.6 449.4 281.6 449.4"/>
  <polygon points="537.3 354.8 525.3 531.8 694.4 524.3 694.4 366.6 537.3 354.8"/>
  <polygon points="529.6 553.3 527.7 687.2 694.4 687.2 694.4 548.6 529.6 553.3"/>
</svg>